<mxfile host="app.diagrams.net" modified="2023-12-20T22:39:15.317Z" agent="Mozilla/5.0 (X11; Linux x86_64) AppleWebKit/537.36 (KHTML, like Gecko) Chrome/119.0.0.0 Safari/537.36" etag="BnnvuNCAPhQPVShiw4_g" version="22.1.11" type="device">
  <diagram id="C5RBs43oDa-KdzZeNtuy" name="Page-1">
    <mxGraphModel dx="6010" dy="3098" grid="1" gridSize="10" guides="1" tooltips="1" connect="1" arrows="1" fold="1" page="0" pageScale="1" pageWidth="827" pageHeight="1169" math="0" shadow="0">
      <root>
        <mxCell id="WIyWlLk6GJQsqaUBKTNV-0" />
        <mxCell id="WIyWlLk6GJQsqaUBKTNV-1" parent="WIyWlLk6GJQsqaUBKTNV-0" />
        <mxCell id="QCKMq63nriDoolszePyY-29" value="Use" style="endArrow=open;endSize=12;dashed=1;html=1;rounded=0;" parent="WIyWlLk6GJQsqaUBKTNV-1" source="QCKMq63nriDoolszePyY-11" target="GHyRVB632pk-IujTCFTO-8" edge="1">
          <mxGeometry width="160" relative="1" as="geometry">
            <mxPoint x="779" y="-450" as="sourcePoint" />
            <mxPoint x="70" y="-124" as="targetPoint" />
          </mxGeometry>
        </mxCell>
        <mxCell id="0BIKZscY-_na4co5bbyC-1" value="DefaultUser" style="swimlane;fontStyle=1;align=center;verticalAlign=top;childLayout=stackLayout;horizontal=1;startSize=26;horizontalStack=0;resizeParent=1;resizeParentMax=0;resizeLast=0;collapsible=1;marginBottom=0;whiteSpace=wrap;html=1;" parent="WIyWlLk6GJQsqaUBKTNV-1" vertex="1">
          <mxGeometry x="-405" y="250" width="250" height="58" as="geometry" />
        </mxCell>
        <mxCell id="0BIKZscY-_na4co5bbyC-2" value="- role: String = &#39;Default User&#39;" style="text;strokeColor=none;fillColor=none;align=left;verticalAlign=top;spacingLeft=4;spacingRight=4;overflow=hidden;rotatable=0;points=[[0,0.5],[1,0.5]];portConstraint=eastwest;whiteSpace=wrap;html=1;" parent="0BIKZscY-_na4co5bbyC-1" vertex="1">
          <mxGeometry y="26" width="250" height="24" as="geometry" />
        </mxCell>
        <mxCell id="0BIKZscY-_na4co5bbyC-3" value="" style="line;strokeWidth=1;fillColor=none;align=left;verticalAlign=middle;spacingTop=-1;spacingLeft=3;spacingRight=3;rotatable=0;labelPosition=right;points=[];portConstraint=eastwest;strokeColor=inherit;" parent="0BIKZscY-_na4co5bbyC-1" vertex="1">
          <mxGeometry y="50" width="250" height="8" as="geometry" />
        </mxCell>
        <mxCell id="0BIKZscY-_na4co5bbyC-13" value="Moderator" style="swimlane;fontStyle=1;align=center;verticalAlign=top;childLayout=stackLayout;horizontal=1;startSize=26;horizontalStack=0;resizeParent=1;resizeParentMax=0;resizeLast=0;collapsible=1;marginBottom=0;whiteSpace=wrap;html=1;" parent="WIyWlLk6GJQsqaUBKTNV-1" vertex="1">
          <mxGeometry x="-100" y="250" width="200" height="90" as="geometry" />
        </mxCell>
        <mxCell id="0BIKZscY-_na4co5bbyC-14" value="- role: String = &#39;Moderator&#39;" style="text;strokeColor=none;fillColor=none;align=left;verticalAlign=top;spacingLeft=4;spacingRight=4;overflow=hidden;rotatable=0;points=[[0,0.5],[1,0.5]];portConstraint=eastwest;whiteSpace=wrap;html=1;" parent="0BIKZscY-_na4co5bbyC-13" vertex="1">
          <mxGeometry y="26" width="200" height="24" as="geometry" />
        </mxCell>
        <mxCell id="0BIKZscY-_na4co5bbyC-15" value="" style="line;strokeWidth=1;fillColor=none;align=left;verticalAlign=middle;spacingTop=-1;spacingLeft=3;spacingRight=3;rotatable=0;labelPosition=right;points=[];portConstraint=eastwest;strokeColor=inherit;" parent="0BIKZscY-_na4co5bbyC-13" vertex="1">
          <mxGeometry y="50" width="200" height="8" as="geometry" />
        </mxCell>
        <mxCell id="0BIKZscY-_na4co5bbyC-16" value="+ change_rights(file_id: Int): None" style="text;strokeColor=none;fillColor=none;align=left;verticalAlign=top;spacingLeft=4;spacingRight=4;overflow=hidden;rotatable=0;points=[[0,0.5],[1,0.5]];portConstraint=eastwest;whiteSpace=wrap;html=1;" parent="0BIKZscY-_na4co5bbyC-13" vertex="1">
          <mxGeometry y="58" width="200" height="32" as="geometry" />
        </mxCell>
        <mxCell id="0BIKZscY-_na4co5bbyC-17" value="Administrator" style="swimlane;fontStyle=1;align=center;verticalAlign=top;childLayout=stackLayout;horizontal=1;startSize=26;horizontalStack=0;resizeParent=1;resizeParentMax=0;resizeLast=0;collapsible=1;marginBottom=0;whiteSpace=wrap;html=1;" parent="WIyWlLk6GJQsqaUBKTNV-1" vertex="1">
          <mxGeometry x="140" y="250" width="200" height="90" as="geometry" />
        </mxCell>
        <mxCell id="0BIKZscY-_na4co5bbyC-18" value="- role: String = &#39;Administrator&#39;" style="text;strokeColor=none;fillColor=none;align=left;verticalAlign=top;spacingLeft=4;spacingRight=4;overflow=hidden;rotatable=0;points=[[0,0.5],[1,0.5]];portConstraint=eastwest;whiteSpace=wrap;html=1;" parent="0BIKZscY-_na4co5bbyC-17" vertex="1">
          <mxGeometry y="26" width="200" height="24" as="geometry" />
        </mxCell>
        <mxCell id="0BIKZscY-_na4co5bbyC-19" value="" style="line;strokeWidth=1;fillColor=none;align=left;verticalAlign=middle;spacingTop=-1;spacingLeft=3;spacingRight=3;rotatable=0;labelPosition=right;points=[];portConstraint=eastwest;strokeColor=inherit;" parent="0BIKZscY-_na4co5bbyC-17" vertex="1">
          <mxGeometry y="50" width="200" height="8" as="geometry" />
        </mxCell>
        <mxCell id="0BIKZscY-_na4co5bbyC-20" value="+ change_rights(file_id: Int): None" style="text;strokeColor=none;fillColor=none;align=left;verticalAlign=top;spacingLeft=4;spacingRight=4;overflow=hidden;rotatable=0;points=[[0,0.5],[1,0.5]];portConstraint=eastwest;whiteSpace=wrap;html=1;" parent="0BIKZscY-_na4co5bbyC-17" vertex="1">
          <mxGeometry y="58" width="200" height="32" as="geometry" />
        </mxCell>
        <mxCell id="0BIKZscY-_na4co5bbyC-33" value="&amp;lt;&amp;lt;Abstract&amp;gt;&amp;gt;&lt;br&gt;ObjectFileDirectory" style="swimlane;fontStyle=1;align=center;verticalAlign=top;childLayout=stackLayout;horizontal=1;startSize=50;horizontalStack=0;resizeParent=1;resizeParentMax=0;resizeLast=0;collapsible=1;marginBottom=0;whiteSpace=wrap;html=1;" parent="WIyWlLk6GJQsqaUBKTNV-1" vertex="1">
          <mxGeometry x="440" y="-160" width="230" height="120" as="geometry" />
        </mxCell>
        <mxCell id="0BIKZscY-_na4co5bbyC-34" value="+ id: int&lt;br&gt;+ name: String&lt;br&gt;+ path: String" style="text;strokeColor=none;fillColor=none;align=left;verticalAlign=top;spacingLeft=4;spacingRight=4;overflow=hidden;rotatable=0;points=[[0,0.5],[1,0.5]];portConstraint=eastwest;whiteSpace=wrap;html=1;" parent="0BIKZscY-_na4co5bbyC-33" vertex="1">
          <mxGeometry y="50" width="230" height="50" as="geometry" />
        </mxCell>
        <mxCell id="0BIKZscY-_na4co5bbyC-35" value="" style="line;strokeWidth=1;fillColor=none;align=left;verticalAlign=middle;spacingTop=-1;spacingLeft=3;spacingRight=3;rotatable=0;labelPosition=right;points=[];portConstraint=eastwest;strokeColor=inherit;" parent="0BIKZscY-_na4co5bbyC-33" vertex="1">
          <mxGeometry y="100" width="230" height="20" as="geometry" />
        </mxCell>
        <mxCell id="0BIKZscY-_na4co5bbyC-41" value="FIle" style="swimlane;fontStyle=1;align=center;verticalAlign=top;childLayout=stackLayout;horizontal=1;startSize=26;horizontalStack=0;resizeParent=1;resizeParentMax=0;resizeLast=0;collapsible=1;marginBottom=0;whiteSpace=wrap;html=1;" parent="WIyWlLk6GJQsqaUBKTNV-1" vertex="1">
          <mxGeometry x="690" y="410" width="250" height="178" as="geometry" />
        </mxCell>
        <mxCell id="0BIKZscY-_na4co5bbyC-42" value="+ name: String&lt;br style=&quot;border-color: var(--border-color);&quot;&gt;+ path: String&lt;br&gt;+ access_type: List[FolderAccessType]&lt;br&gt;- body: Bytes" style="text;strokeColor=none;fillColor=none;align=left;verticalAlign=top;spacingLeft=4;spacingRight=4;overflow=hidden;rotatable=0;points=[[0,0.5],[1,0.5]];portConstraint=eastwest;whiteSpace=wrap;html=1;" parent="0BIKZscY-_na4co5bbyC-41" vertex="1">
          <mxGeometry y="26" width="250" height="104" as="geometry" />
        </mxCell>
        <mxCell id="0BIKZscY-_na4co5bbyC-43" value="" style="line;strokeWidth=1;fillColor=none;align=left;verticalAlign=middle;spacingTop=-1;spacingLeft=3;spacingRight=3;rotatable=0;labelPosition=right;points=[];portConstraint=eastwest;strokeColor=inherit;" parent="0BIKZscY-_na4co5bbyC-41" vertex="1">
          <mxGeometry y="130" width="250" height="8" as="geometry" />
        </mxCell>
        <mxCell id="0BIKZscY-_na4co5bbyC-44" value="+ delete(f_id: Int, user: User): None" style="text;strokeColor=none;fillColor=none;align=left;verticalAlign=top;spacingLeft=4;spacingRight=4;overflow=hidden;rotatable=0;points=[[0,0.5],[1,0.5]];portConstraint=eastwest;whiteSpace=wrap;html=1;" parent="0BIKZscY-_na4co5bbyC-41" vertex="1">
          <mxGeometry y="138" width="250" height="40" as="geometry" />
        </mxCell>
        <mxCell id="0BIKZscY-_na4co5bbyC-45" value="Folder" style="swimlane;fontStyle=1;align=center;verticalAlign=top;childLayout=stackLayout;horizontal=1;startSize=26;horizontalStack=0;resizeParent=1;resizeParentMax=0;resizeLast=0;collapsible=1;marginBottom=0;whiteSpace=wrap;html=1;" parent="WIyWlLk6GJQsqaUBKTNV-1" vertex="1">
          <mxGeometry x="310" y="440" width="250" height="120" as="geometry" />
        </mxCell>
        <mxCell id="0BIKZscY-_na4co5bbyC-46" value="+ name: String&lt;br style=&quot;border-color: var(--border-color);&quot;&gt;+ path: String&lt;br&gt;+ files: List[File]" style="text;strokeColor=none;fillColor=none;align=left;verticalAlign=top;spacingLeft=4;spacingRight=4;overflow=hidden;rotatable=0;points=[[0,0.5],[1,0.5]];portConstraint=eastwest;whiteSpace=wrap;html=1;" parent="0BIKZscY-_na4co5bbyC-45" vertex="1">
          <mxGeometry y="26" width="250" height="64" as="geometry" />
        </mxCell>
        <mxCell id="0BIKZscY-_na4co5bbyC-47" value="" style="line;strokeWidth=1;fillColor=none;align=left;verticalAlign=middle;spacingTop=-1;spacingLeft=3;spacingRight=3;rotatable=0;labelPosition=right;points=[];portConstraint=eastwest;strokeColor=inherit;" parent="0BIKZscY-_na4co5bbyC-45" vertex="1">
          <mxGeometry y="90" width="250" height="8" as="geometry" />
        </mxCell>
        <mxCell id="0BIKZscY-_na4co5bbyC-48" value="+ delete(f_id: Int, user: User): None" style="text;strokeColor=none;fillColor=none;align=left;verticalAlign=top;spacingLeft=4;spacingRight=4;overflow=hidden;rotatable=0;points=[[0,0.5],[1,0.5]];portConstraint=eastwest;whiteSpace=wrap;html=1;" parent="0BIKZscY-_na4co5bbyC-45" vertex="1">
          <mxGeometry y="98" width="250" height="22" as="geometry" />
        </mxCell>
        <mxCell id="GHyRVB632pk-IujTCFTO-8" value="&amp;lt;&amp;lt;Abstract&amp;gt;&amp;gt;&lt;br&gt;User" style="swimlane;fontStyle=1;align=center;verticalAlign=top;childLayout=stackLayout;horizontal=1;startSize=40;horizontalStack=0;resizeParent=1;resizeParentMax=0;resizeLast=0;collapsible=1;marginBottom=0;whiteSpace=wrap;html=1;" parent="WIyWlLk6GJQsqaUBKTNV-1" vertex="1">
          <mxGeometry x="50" y="-230" width="190" height="118" as="geometry" />
        </mxCell>
        <mxCell id="GHyRVB632pk-IujTCFTO-9" value="+ id: int&lt;br&gt;+ name: str&lt;br&gt;+ email: str&lt;br&gt;- password: str" style="text;strokeColor=none;fillColor=none;align=left;verticalAlign=top;spacingLeft=4;spacingRight=4;overflow=hidden;rotatable=0;points=[[0,0.5],[1,0.5]];portConstraint=eastwest;whiteSpace=wrap;html=1;" parent="GHyRVB632pk-IujTCFTO-8" vertex="1">
          <mxGeometry y="40" width="190" height="70" as="geometry" />
        </mxCell>
        <mxCell id="GHyRVB632pk-IujTCFTO-10" value="" style="line;strokeWidth=1;fillColor=none;align=left;verticalAlign=middle;spacingTop=-1;spacingLeft=3;spacingRight=3;rotatable=0;labelPosition=right;points=[];portConstraint=eastwest;strokeColor=inherit;" parent="GHyRVB632pk-IujTCFTO-8" vertex="1">
          <mxGeometry y="110" width="190" height="8" as="geometry" />
        </mxCell>
        <mxCell id="GHyRVB632pk-IujTCFTO-34" value="" style="endArrow=open;endFill=1;endSize=12;html=1;rounded=0;" parent="WIyWlLk6GJQsqaUBKTNV-1" source="0BIKZscY-_na4co5bbyC-45" target="0BIKZscY-_na4co5bbyC-41" edge="1">
          <mxGeometry width="160" relative="1" as="geometry">
            <mxPoint x="542" y="445" as="sourcePoint" />
            <mxPoint x="652" y="26" as="targetPoint" />
          </mxGeometry>
        </mxCell>
        <mxCell id="zGZ5IysMVzBt_zQlDPzs-7" value="1" style="edgeLabel;html=1;align=center;verticalAlign=middle;resizable=0;points=[];" parent="GHyRVB632pk-IujTCFTO-34" vertex="1" connectable="0">
          <mxGeometry x="-0.7905" y="-3" relative="1" as="geometry">
            <mxPoint as="offset" />
          </mxGeometry>
        </mxCell>
        <mxCell id="zGZ5IysMVzBt_zQlDPzs-8" value="1..*" style="edgeLabel;html=1;align=center;verticalAlign=middle;resizable=0;points=[];" parent="GHyRVB632pk-IujTCFTO-34" vertex="1" connectable="0">
          <mxGeometry x="0.8476" y="1" relative="1" as="geometry">
            <mxPoint as="offset" />
          </mxGeometry>
        </mxCell>
        <mxCell id="zGZ5IysMVzBt_zQlDPzs-32" value="UserController" style="swimlane;fontStyle=1;align=center;verticalAlign=top;childLayout=stackLayout;horizontal=1;startSize=26;horizontalStack=0;resizeParent=1;resizeParentMax=0;resizeLast=0;collapsible=1;marginBottom=0;whiteSpace=wrap;html=1;" parent="WIyWlLk6GJQsqaUBKTNV-1" vertex="1">
          <mxGeometry x="170" y="-1080" width="510" height="150" as="geometry" />
        </mxCell>
        <mxCell id="zGZ5IysMVzBt_zQlDPzs-33" value="- dal: UserDAL" style="text;strokeColor=none;fillColor=none;align=left;verticalAlign=top;spacingLeft=4;spacingRight=4;overflow=hidden;rotatable=0;points=[[0,0.5],[1,0.5]];portConstraint=eastwest;whiteSpace=wrap;html=1;" parent="zGZ5IysMVzBt_zQlDPzs-32" vertex="1">
          <mxGeometry y="26" width="510" height="26" as="geometry" />
        </mxCell>
        <mxCell id="zGZ5IysMVzBt_zQlDPzs-34" value="" style="line;strokeWidth=1;fillColor=none;align=left;verticalAlign=middle;spacingTop=-1;spacingLeft=3;spacingRight=3;rotatable=0;labelPosition=right;points=[];portConstraint=eastwest;strokeColor=inherit;" parent="zGZ5IysMVzBt_zQlDPzs-32" vertex="1">
          <mxGeometry y="52" width="510" height="8" as="geometry" />
        </mxCell>
        <mxCell id="zGZ5IysMVzBt_zQlDPzs-35" value="+ create(dto: UserCreate): None&lt;br style=&quot;border-color: var(--border-color);&quot;&gt;+ read(filter: GetUserFilter): None&lt;br style=&quot;border-color: var(--border-color);&quot;&gt;+ update(filter: PatchUserFilter): None&lt;br style=&quot;border-color: var(--border-color);&quot;&gt;+ delete (filter: GetUserFilter): None" style="text;strokeColor=none;fillColor=none;align=left;verticalAlign=top;spacingLeft=4;spacingRight=4;overflow=hidden;rotatable=0;points=[[0,0.5],[1,0.5]];portConstraint=eastwest;whiteSpace=wrap;html=1;" parent="zGZ5IysMVzBt_zQlDPzs-32" vertex="1">
          <mxGeometry y="60" width="510" height="90" as="geometry" />
        </mxCell>
        <mxCell id="zGZ5IysMVzBt_zQlDPzs-47" value="" style="endArrow=open;endSize=12;dashed=1;html=1;rounded=0;" parent="WIyWlLk6GJQsqaUBKTNV-1" source="zGZ5IysMVzBt_zQlDPzs-32" target="GHyRVB632pk-IujTCFTO-8" edge="1">
          <mxGeometry width="160" relative="1" as="geometry">
            <mxPoint x="51" y="-262" as="sourcePoint" />
            <mxPoint x="560" y="-95" as="targetPoint" />
          </mxGeometry>
        </mxCell>
        <mxCell id="QCKMq63nriDoolszePyY-3" value="&amp;lt;&amp;lt;interface&amp;gt;&amp;gt;&lt;br&gt;DAL" style="swimlane;fontStyle=1;align=center;verticalAlign=top;childLayout=stackLayout;horizontal=1;startSize=40;horizontalStack=0;resizeParent=1;resizeParentMax=0;resizeLast=0;collapsible=1;marginBottom=0;whiteSpace=wrap;html=1;" parent="WIyWlLk6GJQsqaUBKTNV-1" vertex="1">
          <mxGeometry x="860" y="-970" width="370" height="130" as="geometry" />
        </mxCell>
        <mxCell id="QCKMq63nriDoolszePyY-5" value="" style="line;strokeWidth=1;fillColor=none;align=left;verticalAlign=middle;spacingTop=-1;spacingLeft=3;spacingRight=3;rotatable=0;labelPosition=right;points=[];portConstraint=eastwest;strokeColor=inherit;" parent="QCKMq63nriDoolszePyY-3" vertex="1">
          <mxGeometry y="40" width="370" height="8" as="geometry" />
        </mxCell>
        <mxCell id="QCKMq63nriDoolszePyY-6" value="+ create(object: User |ObjectFileDirectory, data: Dict[str,str]): None&lt;br style=&quot;border-color: var(--border-color);&quot;&gt;+ read(object: User |ObjectFileDirectory, data: Dict[str,str]): None&lt;br style=&quot;border-color: var(--border-color);&quot;&gt;+ update(object: User |ObjectFileDirectory, data: Dict[str,str]): None&lt;br style=&quot;border-color: var(--border-color);&quot;&gt;+ delete (object: User |ObjectFileDirectory, data: Dict[str,str]): None" style="text;strokeColor=none;fillColor=none;align=left;verticalAlign=top;spacingLeft=4;spacingRight=4;overflow=hidden;rotatable=0;points=[[0,0.5],[1,0.5]];portConstraint=eastwest;whiteSpace=wrap;html=1;" parent="QCKMq63nriDoolszePyY-3" vertex="1">
          <mxGeometry y="48" width="370" height="82" as="geometry" />
        </mxCell>
        <mxCell id="QCKMq63nriDoolszePyY-7" value="UserDAL" style="swimlane;fontStyle=1;align=center;verticalAlign=top;childLayout=stackLayout;horizontal=1;startSize=26;horizontalStack=0;resizeParent=1;resizeParentMax=0;resizeLast=0;collapsible=1;marginBottom=0;whiteSpace=wrap;html=1;" parent="WIyWlLk6GJQsqaUBKTNV-1" vertex="1">
          <mxGeometry x="770" y="-630" width="380" height="130" as="geometry" />
        </mxCell>
        <mxCell id="QCKMq63nriDoolszePyY-8" value="+ db_session: SQLAlchemy.Session&amp;nbsp;" style="text;strokeColor=none;fillColor=none;align=left;verticalAlign=top;spacingLeft=4;spacingRight=4;overflow=hidden;rotatable=0;points=[[0,0.5],[1,0.5]];portConstraint=eastwest;whiteSpace=wrap;html=1;" parent="QCKMq63nriDoolszePyY-7" vertex="1">
          <mxGeometry y="26" width="380" height="26" as="geometry" />
        </mxCell>
        <mxCell id="QCKMq63nriDoolszePyY-9" value="" style="line;strokeWidth=1;fillColor=none;align=left;verticalAlign=middle;spacingTop=-1;spacingLeft=3;spacingRight=3;rotatable=0;labelPosition=right;points=[];portConstraint=eastwest;strokeColor=inherit;" parent="QCKMq63nriDoolszePyY-7" vertex="1">
          <mxGeometry y="52" width="380" height="8" as="geometry" />
        </mxCell>
        <mxCell id="QCKMq63nriDoolszePyY-10" value="+ create(model: User): None&lt;br style=&quot;border-color: var(--border-color);&quot;&gt;+ read(filter: GetUserFilter): None&lt;br style=&quot;border-color: var(--border-color);&quot;&gt;+ update(filter: PatchUserFilter): None&lt;br style=&quot;border-color: var(--border-color);&quot;&gt;+ delete (filter: GetUserFilter): None" style="text;strokeColor=none;fillColor=none;align=left;verticalAlign=top;spacingLeft=4;spacingRight=4;overflow=hidden;rotatable=0;points=[[0,0.5],[1,0.5]];portConstraint=eastwest;whiteSpace=wrap;html=1;" parent="QCKMq63nriDoolszePyY-7" vertex="1">
          <mxGeometry y="60" width="380" height="70" as="geometry" />
        </mxCell>
        <mxCell id="QCKMq63nriDoolszePyY-11" value="ObjectFileDirectoryDAL" style="swimlane;fontStyle=1;align=center;verticalAlign=top;childLayout=stackLayout;horizontal=1;startSize=26;horizontalStack=0;resizeParent=1;resizeParentMax=0;resizeLast=0;collapsible=1;marginBottom=0;whiteSpace=wrap;html=1;" parent="WIyWlLk6GJQsqaUBKTNV-1" vertex="1">
          <mxGeometry x="1450" y="-575" width="370" height="130" as="geometry" />
        </mxCell>
        <mxCell id="QCKMq63nriDoolszePyY-12" value="+ db_session: SQLAlchemy.Session&amp;nbsp;" style="text;strokeColor=none;fillColor=none;align=left;verticalAlign=top;spacingLeft=4;spacingRight=4;overflow=hidden;rotatable=0;points=[[0,0.5],[1,0.5]];portConstraint=eastwest;whiteSpace=wrap;html=1;" parent="QCKMq63nriDoolszePyY-11" vertex="1">
          <mxGeometry y="26" width="370" height="26" as="geometry" />
        </mxCell>
        <mxCell id="QCKMq63nriDoolszePyY-13" value="" style="line;strokeWidth=1;fillColor=none;align=left;verticalAlign=middle;spacingTop=-1;spacingLeft=3;spacingRight=3;rotatable=0;labelPosition=right;points=[];portConstraint=eastwest;strokeColor=inherit;" parent="QCKMq63nriDoolszePyY-11" vertex="1">
          <mxGeometry y="52" width="370" height="8" as="geometry" />
        </mxCell>
        <mxCell id="QCKMq63nriDoolszePyY-14" value="+ create(model: File | Folder): None&lt;br style=&quot;border-color: var(--border-color);&quot;&gt;+ read(filter: GetFileObjectRepositoreFilter): None&lt;br style=&quot;border-color: var(--border-color);&quot;&gt;+ update(filter: PatchFileObjectRepositoreFilter): None&lt;br style=&quot;border-color: var(--border-color);&quot;&gt;+ delete (filter: GetFileObjectRepositoreFilter): None" style="text;strokeColor=none;fillColor=none;align=left;verticalAlign=top;spacingLeft=4;spacingRight=4;overflow=hidden;rotatable=0;points=[[0,0.5],[1,0.5]];portConstraint=eastwest;whiteSpace=wrap;html=1;" parent="QCKMq63nriDoolszePyY-11" vertex="1">
          <mxGeometry y="60" width="370" height="70" as="geometry" />
        </mxCell>
        <mxCell id="QCKMq63nriDoolszePyY-15" value="" style="endArrow=block;dashed=1;endFill=0;endSize=12;html=1;rounded=0;" parent="WIyWlLk6GJQsqaUBKTNV-1" source="QCKMq63nriDoolszePyY-7" target="QCKMq63nriDoolszePyY-3" edge="1">
          <mxGeometry width="160" relative="1" as="geometry">
            <mxPoint x="770" y="-510" as="sourcePoint" />
            <mxPoint x="930" y="-510" as="targetPoint" />
          </mxGeometry>
        </mxCell>
        <mxCell id="QCKMq63nriDoolszePyY-16" value="" style="endArrow=block;dashed=1;endFill=0;endSize=12;html=1;rounded=0;" parent="WIyWlLk6GJQsqaUBKTNV-1" source="QCKMq63nriDoolszePyY-11" target="QCKMq63nriDoolszePyY-3" edge="1">
          <mxGeometry width="160" relative="1" as="geometry">
            <mxPoint x="898" y="-680" as="sourcePoint" />
            <mxPoint x="1007" y="-830" as="targetPoint" />
          </mxGeometry>
        </mxCell>
        <mxCell id="QCKMq63nriDoolszePyY-17" value="" style="endArrow=open;endFill=1;endSize=12;html=1;rounded=0;entryX=0.25;entryY=0;entryDx=0;entryDy=0;" parent="WIyWlLk6GJQsqaUBKTNV-1" source="zGZ5IysMVzBt_zQlDPzs-32" target="QCKMq63nriDoolszePyY-7" edge="1">
          <mxGeometry width="160" relative="1" as="geometry">
            <mxPoint x="70" y="-29" as="sourcePoint" />
            <mxPoint x="603" y="260" as="targetPoint" />
          </mxGeometry>
        </mxCell>
        <mxCell id="QCKMq63nriDoolszePyY-18" value="1" style="edgeLabel;html=1;align=center;verticalAlign=middle;resizable=0;points=[];" parent="QCKMq63nriDoolszePyY-17" vertex="1" connectable="0">
          <mxGeometry x="-0.8289" y="-3" relative="1" as="geometry">
            <mxPoint as="offset" />
          </mxGeometry>
        </mxCell>
        <mxCell id="QCKMq63nriDoolszePyY-19" value="1" style="edgeLabel;html=1;align=center;verticalAlign=middle;resizable=0;points=[];" parent="QCKMq63nriDoolszePyY-17" vertex="1" connectable="0">
          <mxGeometry x="0.8026" y="1" relative="1" as="geometry">
            <mxPoint as="offset" />
          </mxGeometry>
        </mxCell>
        <mxCell id="QCKMq63nriDoolszePyY-24" value="" style="endArrow=open;endFill=1;endSize=12;html=1;rounded=0;" parent="WIyWlLk6GJQsqaUBKTNV-1" source="QCKMq63nriDoolszePyY-20" target="QCKMq63nriDoolszePyY-11" edge="1">
          <mxGeometry width="160" relative="1" as="geometry">
            <mxPoint x="497" y="-401" as="sourcePoint" />
            <mxPoint x="743" y="-550" as="targetPoint" />
          </mxGeometry>
        </mxCell>
        <mxCell id="QCKMq63nriDoolszePyY-25" value="1" style="edgeLabel;html=1;align=center;verticalAlign=middle;resizable=0;points=[];" parent="QCKMq63nriDoolszePyY-24" vertex="1" connectable="0">
          <mxGeometry x="-0.8289" y="-3" relative="1" as="geometry">
            <mxPoint as="offset" />
          </mxGeometry>
        </mxCell>
        <mxCell id="QCKMq63nriDoolszePyY-26" value="1" style="edgeLabel;html=1;align=center;verticalAlign=middle;resizable=0;points=[];" parent="QCKMq63nriDoolszePyY-24" vertex="1" connectable="0">
          <mxGeometry x="0.8026" y="1" relative="1" as="geometry">
            <mxPoint as="offset" />
          </mxGeometry>
        </mxCell>
        <mxCell id="QCKMq63nriDoolszePyY-28" value="Use" style="endArrow=open;endSize=12;dashed=1;html=1;rounded=0;" parent="WIyWlLk6GJQsqaUBKTNV-1" source="QCKMq63nriDoolszePyY-7" target="GHyRVB632pk-IujTCFTO-8" edge="1">
          <mxGeometry width="160" relative="1" as="geometry">
            <mxPoint x="49" y="-440" as="sourcePoint" />
            <mxPoint x="308" y="-526" as="targetPoint" />
          </mxGeometry>
        </mxCell>
        <mxCell id="QCKMq63nriDoolszePyY-20" value="FileObjectsController" style="swimlane;fontStyle=1;align=center;verticalAlign=top;childLayout=stackLayout;horizontal=1;startSize=26;horizontalStack=0;resizeParent=1;resizeParentMax=0;resizeLast=0;collapsible=1;marginBottom=0;whiteSpace=wrap;html=1;" parent="WIyWlLk6GJQsqaUBKTNV-1" vertex="1">
          <mxGeometry x="960" y="-220" width="320" height="150" as="geometry" />
        </mxCell>
        <mxCell id="QCKMq63nriDoolszePyY-21" value="- dal:&amp;nbsp;ObjectFileDirectoryDAL" style="text;strokeColor=none;fillColor=none;align=left;verticalAlign=top;spacingLeft=4;spacingRight=4;overflow=hidden;rotatable=0;points=[[0,0.5],[1,0.5]];portConstraint=eastwest;whiteSpace=wrap;html=1;" parent="QCKMq63nriDoolszePyY-20" vertex="1">
          <mxGeometry y="26" width="320" height="26" as="geometry" />
        </mxCell>
        <mxCell id="QCKMq63nriDoolszePyY-22" value="" style="line;strokeWidth=1;fillColor=none;align=left;verticalAlign=middle;spacingTop=-1;spacingLeft=3;spacingRight=3;rotatable=0;labelPosition=right;points=[];portConstraint=eastwest;strokeColor=inherit;" parent="QCKMq63nriDoolszePyY-20" vertex="1">
          <mxGeometry y="52" width="320" height="8" as="geometry" />
        </mxCell>
        <mxCell id="QCKMq63nriDoolszePyY-23" value="+ create(dto:&amp;nbsp; FileCreate | FolderCreate)&lt;br style=&quot;border-color: var(--border-color);&quot;&gt;+ read(filter: GetFileObjectRepositoreFilter)&lt;br style=&quot;border-color: var(--border-color);&quot;&gt;+ update(filter: PatchFileObjectRepositoreFilter)&lt;br style=&quot;border-color: var(--border-color);&quot;&gt;+ delete (filter: GetFileObjectRepositoreFilter)" style="text;strokeColor=none;fillColor=none;align=left;verticalAlign=top;spacingLeft=4;spacingRight=4;overflow=hidden;rotatable=0;points=[[0,0.5],[1,0.5]];portConstraint=eastwest;whiteSpace=wrap;html=1;" parent="QCKMq63nriDoolszePyY-20" vertex="1">
          <mxGeometry y="60" width="320" height="90" as="geometry" />
        </mxCell>
        <mxCell id="QCKMq63nriDoolszePyY-34" value="&amp;lt;&amp;lt;main&amp;gt;&amp;gt;&lt;br&gt;&amp;lt;&amp;lt;UI&amp;gt;&amp;gt;&lt;br&gt;LoginView" style="swimlane;fontStyle=1;align=center;verticalAlign=top;childLayout=stackLayout;horizontal=1;startSize=56;horizontalStack=0;resizeParent=1;resizeParentMax=0;resizeLast=0;collapsible=1;marginBottom=0;whiteSpace=wrap;html=1;" parent="WIyWlLk6GJQsqaUBKTNV-1" vertex="1">
          <mxGeometry x="-1130" y="-610" width="470" height="100" as="geometry" />
        </mxCell>
        <mxCell id="QCKMq63nriDoolszePyY-36" value="" style="line;strokeWidth=1;fillColor=none;align=left;verticalAlign=middle;spacingTop=-1;spacingLeft=3;spacingRight=3;rotatable=0;labelPosition=right;points=[];portConstraint=eastwest;strokeColor=inherit;" parent="QCKMq63nriDoolszePyY-34" vertex="1">
          <mxGeometry y="56" width="470" height="8" as="geometry" />
        </mxCell>
        <mxCell id="QCKMq63nriDoolszePyY-37" value="+ action(controller_iject: ControllerService, user_session: String, f_f:object:ObjectFileDirectory): None" style="text;strokeColor=none;fillColor=none;align=left;verticalAlign=top;spacingLeft=4;spacingRight=4;overflow=hidden;rotatable=0;points=[[0,0.5],[1,0.5]];portConstraint=eastwest;whiteSpace=wrap;html=1;" parent="QCKMq63nriDoolszePyY-34" vertex="1">
          <mxGeometry y="64" width="470" height="36" as="geometry" />
        </mxCell>
        <mxCell id="QLrlMrmF7mhXjP5vx9qJ-6" value="&amp;lt;&amp;lt;UI&amp;gt;&amp;gt;&lt;br&gt;CreateFileView" style="swimlane;fontStyle=1;align=center;verticalAlign=top;childLayout=stackLayout;horizontal=1;startSize=40;horizontalStack=0;resizeParent=1;resizeParentMax=0;resizeLast=0;collapsible=1;marginBottom=0;whiteSpace=wrap;html=1;" parent="WIyWlLk6GJQsqaUBKTNV-1" vertex="1">
          <mxGeometry x="-1235" y="-230" width="680" height="118" as="geometry" />
        </mxCell>
        <mxCell id="QLrlMrmF7mhXjP5vx9qJ-7" value="+ model: ObjectFileDirectory&lt;br&gt;+ template: String" style="text;strokeColor=none;fillColor=none;align=left;verticalAlign=top;spacingLeft=4;spacingRight=4;overflow=hidden;rotatable=0;points=[[0,0.5],[1,0.5]];portConstraint=eastwest;whiteSpace=wrap;html=1;" parent="QLrlMrmF7mhXjP5vx9qJ-6" vertex="1">
          <mxGeometry y="40" width="680" height="44" as="geometry" />
        </mxCell>
        <mxCell id="QLrlMrmF7mhXjP5vx9qJ-8" value="" style="line;strokeWidth=1;fillColor=none;align=left;verticalAlign=middle;spacingTop=-1;spacingLeft=3;spacingRight=3;rotatable=0;labelPosition=right;points=[];portConstraint=eastwest;strokeColor=inherit;" parent="QLrlMrmF7mhXjP5vx9qJ-6" vertex="1">
          <mxGeometry y="84" width="680" height="8" as="geometry" />
        </mxCell>
        <mxCell id="QLrlMrmF7mhXjP5vx9qJ-9" value="+ action(controller_iject: ControllerService, user_session: String, f_f:object:ObjectFileDirectory): None" style="text;strokeColor=none;fillColor=none;align=left;verticalAlign=top;spacingLeft=4;spacingRight=4;overflow=hidden;rotatable=0;points=[[0,0.5],[1,0.5]];portConstraint=eastwest;whiteSpace=wrap;html=1;" parent="QLrlMrmF7mhXjP5vx9qJ-6" vertex="1">
          <mxGeometry y="92" width="680" height="26" as="geometry" />
        </mxCell>
        <mxCell id="QLrlMrmF7mhXjP5vx9qJ-10" value="&amp;lt;&amp;lt;UI&amp;gt;&amp;gt;&lt;br&gt;RightsRequestView" style="swimlane;fontStyle=1;align=center;verticalAlign=top;childLayout=stackLayout;horizontal=1;startSize=40;horizontalStack=0;resizeParent=1;resizeParentMax=0;resizeLast=0;collapsible=1;marginBottom=0;whiteSpace=wrap;html=1;" parent="WIyWlLk6GJQsqaUBKTNV-1" vertex="1">
          <mxGeometry x="-1200" y="80" width="650" height="118" as="geometry" />
        </mxCell>
        <mxCell id="QLrlMrmF7mhXjP5vx9qJ-11" value="+ template: String&lt;br&gt;+ model: Rigths" style="text;strokeColor=none;fillColor=none;align=left;verticalAlign=top;spacingLeft=4;spacingRight=4;overflow=hidden;rotatable=0;points=[[0,0.5],[1,0.5]];portConstraint=eastwest;whiteSpace=wrap;html=1;" parent="QLrlMrmF7mhXjP5vx9qJ-10" vertex="1">
          <mxGeometry y="40" width="650" height="44" as="geometry" />
        </mxCell>
        <mxCell id="QLrlMrmF7mhXjP5vx9qJ-12" value="" style="line;strokeWidth=1;fillColor=none;align=left;verticalAlign=middle;spacingTop=-1;spacingLeft=3;spacingRight=3;rotatable=0;labelPosition=right;points=[];portConstraint=eastwest;strokeColor=inherit;" parent="QLrlMrmF7mhXjP5vx9qJ-10" vertex="1">
          <mxGeometry y="84" width="650" height="8" as="geometry" />
        </mxCell>
        <mxCell id="QLrlMrmF7mhXjP5vx9qJ-13" value="+ action(controller_iject: ControllerService, user_session: String, f_f:object:ObjectFileDirectory): None" style="text;strokeColor=none;fillColor=none;align=left;verticalAlign=top;spacingLeft=4;spacingRight=4;overflow=hidden;rotatable=0;points=[[0,0.5],[1,0.5]];portConstraint=eastwest;whiteSpace=wrap;html=1;" parent="QLrlMrmF7mhXjP5vx9qJ-10" vertex="1">
          <mxGeometry y="92" width="650" height="26" as="geometry" />
        </mxCell>
        <mxCell id="QLrlMrmF7mhXjP5vx9qJ-18" value="&amp;lt;&amp;lt;UI&amp;gt;&amp;gt;&lt;br&gt;GetFilesView" style="swimlane;fontStyle=1;align=center;verticalAlign=top;childLayout=stackLayout;horizontal=1;startSize=40;horizontalStack=0;resizeParent=1;resizeParentMax=0;resizeLast=0;collapsible=1;marginBottom=0;whiteSpace=wrap;html=1;" parent="WIyWlLk6GJQsqaUBKTNV-1" vertex="1">
          <mxGeometry x="-1030" y="-890" width="660" height="118" as="geometry" />
        </mxCell>
        <mxCell id="QLrlMrmF7mhXjP5vx9qJ-19" value="+ model:&amp;nbsp;ObjectFileDirectory&lt;br style=&quot;border-color: var(--border-color);&quot;&gt;+ template: String" style="text;strokeColor=none;fillColor=none;align=left;verticalAlign=top;spacingLeft=4;spacingRight=4;overflow=hidden;rotatable=0;points=[[0,0.5],[1,0.5]];portConstraint=eastwest;whiteSpace=wrap;html=1;" parent="QLrlMrmF7mhXjP5vx9qJ-18" vertex="1">
          <mxGeometry y="40" width="660" height="44" as="geometry" />
        </mxCell>
        <mxCell id="QLrlMrmF7mhXjP5vx9qJ-20" value="" style="line;strokeWidth=1;fillColor=none;align=left;verticalAlign=middle;spacingTop=-1;spacingLeft=3;spacingRight=3;rotatable=0;labelPosition=right;points=[];portConstraint=eastwest;strokeColor=inherit;" parent="QLrlMrmF7mhXjP5vx9qJ-18" vertex="1">
          <mxGeometry y="84" width="660" height="8" as="geometry" />
        </mxCell>
        <mxCell id="QLrlMrmF7mhXjP5vx9qJ-21" value="+ action(controller_iject: ControllerService, user_session: String, f_f:object:ObjectFileDirectory): None" style="text;strokeColor=none;fillColor=none;align=left;verticalAlign=top;spacingLeft=4;spacingRight=4;overflow=hidden;rotatable=0;points=[[0,0.5],[1,0.5]];portConstraint=eastwest;whiteSpace=wrap;html=1;" parent="QLrlMrmF7mhXjP5vx9qJ-18" vertex="1">
          <mxGeometry y="92" width="660" height="26" as="geometry" />
        </mxCell>
        <mxCell id="QLrlMrmF7mhXjP5vx9qJ-22" value="&amp;lt;&amp;lt;main&amp;gt;&amp;gt;&lt;br&gt;&amp;lt;&amp;lt;UI&amp;gt;&amp;gt;&lt;br&gt;RegisterView" style="swimlane;fontStyle=1;align=center;verticalAlign=top;childLayout=stackLayout;horizontal=1;startSize=50;horizontalStack=0;resizeParent=1;resizeParentMax=0;resizeLast=0;collapsible=1;marginBottom=0;whiteSpace=wrap;html=1;" parent="WIyWlLk6GJQsqaUBKTNV-1" vertex="1">
          <mxGeometry x="-1190" y="-450" width="510" height="100" as="geometry" />
        </mxCell>
        <mxCell id="QLrlMrmF7mhXjP5vx9qJ-24" value="" style="line;strokeWidth=1;fillColor=none;align=left;verticalAlign=middle;spacingTop=-1;spacingLeft=3;spacingRight=3;rotatable=0;labelPosition=right;points=[];portConstraint=eastwest;strokeColor=inherit;" parent="QLrlMrmF7mhXjP5vx9qJ-22" vertex="1">
          <mxGeometry y="50" width="510" height="8" as="geometry" />
        </mxCell>
        <mxCell id="QLrlMrmF7mhXjP5vx9qJ-25" value="+ action(controller_iject: ControllerService, user_session: String, f_f:object:ObjectFileDirectory): None" style="text;strokeColor=none;fillColor=none;align=left;verticalAlign=top;spacingLeft=4;spacingRight=4;overflow=hidden;rotatable=0;points=[[0,0.5],[1,0.5]];portConstraint=eastwest;whiteSpace=wrap;html=1;" parent="QLrlMrmF7mhXjP5vx9qJ-22" vertex="1">
          <mxGeometry y="58" width="510" height="42" as="geometry" />
        </mxCell>
        <mxCell id="QLrlMrmF7mhXjP5vx9qJ-27" value="" style="endArrow=block;dashed=1;endFill=0;endSize=12;html=1;rounded=0;" parent="WIyWlLk6GJQsqaUBKTNV-1" source="QLrlMrmF7mhXjP5vx9qJ-6" target="zGZ5IysMVzBt_zQlDPzs-28" edge="1">
          <mxGeometry width="160" relative="1" as="geometry">
            <mxPoint x="-202" y="270" as="sourcePoint" />
            <mxPoint x="122" y="-40" as="targetPoint" />
          </mxGeometry>
        </mxCell>
        <mxCell id="QLrlMrmF7mhXjP5vx9qJ-29" value="" style="endArrow=block;dashed=1;endFill=0;endSize=12;html=1;rounded=0;" parent="WIyWlLk6GJQsqaUBKTNV-1" source="QLrlMrmF7mhXjP5vx9qJ-22" target="zGZ5IysMVzBt_zQlDPzs-28" edge="1">
          <mxGeometry width="160" relative="1" as="geometry">
            <mxPoint x="-625" y="-223" as="sourcePoint" />
            <mxPoint x="-402" y="-262" as="targetPoint" />
          </mxGeometry>
        </mxCell>
        <mxCell id="QLrlMrmF7mhXjP5vx9qJ-30" value="" style="endArrow=block;dashed=1;endFill=0;endSize=12;html=1;rounded=0;" parent="WIyWlLk6GJQsqaUBKTNV-1" source="QCKMq63nriDoolszePyY-34" target="zGZ5IysMVzBt_zQlDPzs-28" edge="1">
          <mxGeometry width="160" relative="1" as="geometry">
            <mxPoint x="-615" y="-213" as="sourcePoint" />
            <mxPoint x="-392" y="-252" as="targetPoint" />
          </mxGeometry>
        </mxCell>
        <mxCell id="QLrlMrmF7mhXjP5vx9qJ-31" value="" style="endArrow=block;dashed=1;endFill=0;endSize=12;html=1;rounded=0;" parent="WIyWlLk6GJQsqaUBKTNV-1" source="QLrlMrmF7mhXjP5vx9qJ-18" target="zGZ5IysMVzBt_zQlDPzs-28" edge="1">
          <mxGeometry width="160" relative="1" as="geometry">
            <mxPoint x="-605" y="-203" as="sourcePoint" />
            <mxPoint x="-382" y="-242" as="targetPoint" />
          </mxGeometry>
        </mxCell>
        <mxCell id="QLrlMrmF7mhXjP5vx9qJ-32" value="" style="endArrow=block;dashed=1;endFill=0;endSize=12;html=1;rounded=0;" parent="WIyWlLk6GJQsqaUBKTNV-1" source="QLrlMrmF7mhXjP5vx9qJ-10" target="zGZ5IysMVzBt_zQlDPzs-28" edge="1">
          <mxGeometry width="160" relative="1" as="geometry">
            <mxPoint x="-685" y="-634" as="sourcePoint" />
            <mxPoint x="-239" y="-340" as="targetPoint" />
          </mxGeometry>
        </mxCell>
        <mxCell id="QLrlMrmF7mhXjP5vx9qJ-33" value="" style="endArrow=open;endFill=1;endSize=12;html=1;rounded=0;entryX=0;entryY=0.5;entryDx=0;entryDy=0;" parent="WIyWlLk6GJQsqaUBKTNV-1" source="QLrlMrmF7mhXjP5vx9qJ-10" target="GHyRVB632pk-IujTCFTO-9" edge="1">
          <mxGeometry width="160" relative="1" as="geometry">
            <mxPoint x="-250" y="410" as="sourcePoint" />
            <mxPoint x="530" y="514.2127659574471" as="targetPoint" />
          </mxGeometry>
        </mxCell>
        <mxCell id="QLrlMrmF7mhXjP5vx9qJ-34" value="1" style="edgeLabel;html=1;align=center;verticalAlign=middle;resizable=0;points=[];" parent="QLrlMrmF7mhXjP5vx9qJ-33" vertex="1" connectable="0">
          <mxGeometry x="-0.9398" relative="1" as="geometry">
            <mxPoint as="offset" />
          </mxGeometry>
        </mxCell>
        <mxCell id="QLrlMrmF7mhXjP5vx9qJ-35" value="1" style="edgeLabel;html=1;align=center;verticalAlign=middle;resizable=0;points=[];" parent="QLrlMrmF7mhXjP5vx9qJ-33" vertex="1" connectable="0">
          <mxGeometry x="0.8666" y="1" relative="1" as="geometry">
            <mxPoint as="offset" />
          </mxGeometry>
        </mxCell>
        <mxCell id="QLrlMrmF7mhXjP5vx9qJ-36" value="" style="endArrow=open;endFill=1;endSize=12;html=1;rounded=0;" parent="WIyWlLk6GJQsqaUBKTNV-1" source="QLrlMrmF7mhXjP5vx9qJ-6" target="0BIKZscY-_na4co5bbyC-33" edge="1">
          <mxGeometry width="160" relative="1" as="geometry">
            <mxPoint x="-350" y="223" as="sourcePoint" />
            <mxPoint x="550" y="288" as="targetPoint" />
          </mxGeometry>
        </mxCell>
        <mxCell id="QLrlMrmF7mhXjP5vx9qJ-37" value="1" style="edgeLabel;html=1;align=center;verticalAlign=middle;resizable=0;points=[];" parent="QLrlMrmF7mhXjP5vx9qJ-36" vertex="1" connectable="0">
          <mxGeometry x="-0.9398" relative="1" as="geometry">
            <mxPoint as="offset" />
          </mxGeometry>
        </mxCell>
        <mxCell id="QLrlMrmF7mhXjP5vx9qJ-38" value="1" style="edgeLabel;html=1;align=center;verticalAlign=middle;resizable=0;points=[];" parent="QLrlMrmF7mhXjP5vx9qJ-36" vertex="1" connectable="0">
          <mxGeometry x="0.8666" y="1" relative="1" as="geometry">
            <mxPoint as="offset" />
          </mxGeometry>
        </mxCell>
        <mxCell id="QLrlMrmF7mhXjP5vx9qJ-42" value="" style="endArrow=open;endFill=1;endSize=12;html=1;rounded=0;" parent="WIyWlLk6GJQsqaUBKTNV-1" source="QLrlMrmF7mhXjP5vx9qJ-18" target="0BIKZscY-_na4co5bbyC-33" edge="1">
          <mxGeometry width="160" relative="1" as="geometry">
            <mxPoint x="-530" y="-152" as="sourcePoint" />
            <mxPoint x="90" y="-124" as="targetPoint" />
          </mxGeometry>
        </mxCell>
        <mxCell id="QLrlMrmF7mhXjP5vx9qJ-43" value="1" style="edgeLabel;html=1;align=center;verticalAlign=middle;resizable=0;points=[];" parent="QLrlMrmF7mhXjP5vx9qJ-42" vertex="1" connectable="0">
          <mxGeometry x="-0.9398" relative="1" as="geometry">
            <mxPoint as="offset" />
          </mxGeometry>
        </mxCell>
        <mxCell id="QLrlMrmF7mhXjP5vx9qJ-44" value="1" style="edgeLabel;html=1;align=center;verticalAlign=middle;resizable=0;points=[];" parent="QLrlMrmF7mhXjP5vx9qJ-42" vertex="1" connectable="0">
          <mxGeometry x="0.8666" y="1" relative="1" as="geometry">
            <mxPoint as="offset" />
          </mxGeometry>
        </mxCell>
        <mxCell id="zGZ5IysMVzBt_zQlDPzs-28" value="&amp;lt;&amp;lt;interface&amp;gt;&amp;gt;&lt;br&gt;View" style="swimlane;fontStyle=1;align=center;verticalAlign=top;childLayout=stackLayout;horizontal=1;startSize=40;horizontalStack=0;resizeParent=1;resizeParentMax=0;resizeLast=0;collapsible=1;marginBottom=0;whiteSpace=wrap;html=1;" parent="WIyWlLk6GJQsqaUBKTNV-1" vertex="1">
          <mxGeometry x="-500" y="-350" width="660" height="78" as="geometry" />
        </mxCell>
        <mxCell id="zGZ5IysMVzBt_zQlDPzs-30" value="" style="line;strokeWidth=1;fillColor=none;align=left;verticalAlign=middle;spacingTop=-1;spacingLeft=3;spacingRight=3;rotatable=0;labelPosition=right;points=[];portConstraint=eastwest;strokeColor=inherit;" parent="zGZ5IysMVzBt_zQlDPzs-28" vertex="1">
          <mxGeometry y="40" width="660" height="8" as="geometry" />
        </mxCell>
        <mxCell id="zGZ5IysMVzBt_zQlDPzs-29" value="+ action(controller_iject: ControllerService, user_session: String, f_f:object:ObjectFileDirectory): None" style="text;strokeColor=none;fillColor=none;align=left;verticalAlign=top;spacingLeft=4;spacingRight=4;overflow=hidden;rotatable=0;points=[[0,0.5],[1,0.5]];portConstraint=eastwest;whiteSpace=wrap;html=1;" parent="zGZ5IysMVzBt_zQlDPzs-28" vertex="1">
          <mxGeometry y="48" width="660" height="30" as="geometry" />
        </mxCell>
        <mxCell id="T8gtvdQn0qT-UUSq20wt-7" value="" style="endArrow=open;endSize=12;dashed=1;html=1;rounded=0;" parent="WIyWlLk6GJQsqaUBKTNV-1" source="zGZ5IysMVzBt_zQlDPzs-32" target="QCKMq63nriDoolszePyY-11" edge="1">
          <mxGeometry width="160" relative="1" as="geometry">
            <mxPoint x="540" y="-528" as="sourcePoint" />
            <mxPoint x="850" y="-526" as="targetPoint" />
          </mxGeometry>
        </mxCell>
        <mxCell id="T8gtvdQn0qT-UUSq20wt-8" value="ServiceLoader" style="swimlane;fontStyle=1;align=center;verticalAlign=top;childLayout=stackLayout;horizontal=1;startSize=26;horizontalStack=0;resizeParent=1;resizeParentMax=0;resizeLast=0;collapsible=1;marginBottom=0;whiteSpace=wrap;html=1;" parent="WIyWlLk6GJQsqaUBKTNV-1" vertex="1">
          <mxGeometry x="-1770" y="-420" width="340" height="60" as="geometry" />
        </mxCell>
        <mxCell id="T8gtvdQn0qT-UUSq20wt-10" value="" style="line;strokeWidth=1;fillColor=none;align=left;verticalAlign=middle;spacingTop=-1;spacingLeft=3;spacingRight=3;rotatable=0;labelPosition=right;points=[];portConstraint=eastwest;strokeColor=inherit;" parent="T8gtvdQn0qT-UUSq20wt-8" vertex="1">
          <mxGeometry y="26" width="340" height="8" as="geometry" />
        </mxCell>
        <mxCell id="T8gtvdQn0qT-UUSq20wt-11" value="+ init(): None" style="text;strokeColor=none;fillColor=none;align=left;verticalAlign=top;spacingLeft=4;spacingRight=4;overflow=hidden;rotatable=0;points=[[0,0.5],[1,0.5]];portConstraint=eastwest;whiteSpace=wrap;html=1;" parent="T8gtvdQn0qT-UUSq20wt-8" vertex="1">
          <mxGeometry y="34" width="340" height="26" as="geometry" />
        </mxCell>
        <mxCell id="T8gtvdQn0qT-UUSq20wt-13" value="" style="endArrow=open;endSize=12;dashed=1;html=1;rounded=0;" parent="WIyWlLk6GJQsqaUBKTNV-1" source="T8gtvdQn0qT-UUSq20wt-8" target="QLrlMrmF7mhXjP5vx9qJ-18" edge="1">
          <mxGeometry width="160" relative="1" as="geometry">
            <mxPoint x="-987" y="-1010" as="sourcePoint" />
            <mxPoint x="-570" y="-916" as="targetPoint" />
          </mxGeometry>
        </mxCell>
        <mxCell id="T8gtvdQn0qT-UUSq20wt-14" value="" style="endArrow=open;endSize=12;dashed=1;html=1;rounded=0;" parent="WIyWlLk6GJQsqaUBKTNV-1" source="T8gtvdQn0qT-UUSq20wt-8" target="QCKMq63nriDoolszePyY-34" edge="1">
          <mxGeometry width="160" relative="1" as="geometry">
            <mxPoint x="-1089" y="-1010" as="sourcePoint" />
            <mxPoint x="-811" y="-740" as="targetPoint" />
          </mxGeometry>
        </mxCell>
        <mxCell id="T8gtvdQn0qT-UUSq20wt-15" value="" style="endArrow=open;endSize=12;dashed=1;html=1;rounded=0;" parent="WIyWlLk6GJQsqaUBKTNV-1" source="T8gtvdQn0qT-UUSq20wt-8" target="QLrlMrmF7mhXjP5vx9qJ-22" edge="1">
          <mxGeometry width="160" relative="1" as="geometry">
            <mxPoint x="-1114" y="-1010" as="sourcePoint" />
            <mxPoint x="-1034" y="-590" as="targetPoint" />
          </mxGeometry>
        </mxCell>
        <mxCell id="T8gtvdQn0qT-UUSq20wt-20" value="" style="endArrow=open;endSize=12;dashed=1;html=1;rounded=0;" parent="WIyWlLk6GJQsqaUBKTNV-1" source="T8gtvdQn0qT-UUSq20wt-8" target="QLrlMrmF7mhXjP5vx9qJ-6" edge="1">
          <mxGeometry width="160" relative="1" as="geometry">
            <mxPoint x="-1560" y="-850" as="sourcePoint" />
            <mxPoint x="-926" y="-223" as="targetPoint" />
          </mxGeometry>
        </mxCell>
        <mxCell id="T8gtvdQn0qT-UUSq20wt-21" value="" style="endArrow=open;endSize=12;dashed=1;html=1;rounded=0;" parent="WIyWlLk6GJQsqaUBKTNV-1" source="T8gtvdQn0qT-UUSq20wt-8" target="QLrlMrmF7mhXjP5vx9qJ-10" edge="1">
          <mxGeometry width="160" relative="1" as="geometry">
            <mxPoint x="-1559" y="-850" as="sourcePoint" />
            <mxPoint x="-740" y="-50" as="targetPoint" />
          </mxGeometry>
        </mxCell>
        <mxCell id="JaHAeiwTFwWaZ28Pk-Xw-0" value="" style="endArrow=block;endSize=16;endFill=0;html=1;rounded=0;exitX=0.28;exitY=-0.008;exitDx=0;exitDy=0;exitPerimeter=0;" parent="WIyWlLk6GJQsqaUBKTNV-1" source="0BIKZscY-_na4co5bbyC-45" edge="1">
          <mxGeometry width="160" relative="1" as="geometry">
            <mxPoint x="610" y="50" as="sourcePoint" />
            <mxPoint x="520" y="-40" as="targetPoint" />
          </mxGeometry>
        </mxCell>
        <mxCell id="JaHAeiwTFwWaZ28Pk-Xw-1" value="" style="endArrow=block;endSize=16;endFill=0;html=1;rounded=0;exitX=0;exitY=0.5;exitDx=0;exitDy=0;" parent="WIyWlLk6GJQsqaUBKTNV-1" source="0BIKZscY-_na4co5bbyC-42" edge="1">
          <mxGeometry width="160" relative="1" as="geometry">
            <mxPoint x="1030" y="159" as="sourcePoint" />
            <mxPoint x="570" y="-40" as="targetPoint" />
          </mxGeometry>
        </mxCell>
        <mxCell id="JaHAeiwTFwWaZ28Pk-Xw-2" value="" style="endArrow=block;endSize=16;endFill=0;html=1;rounded=0;exitX=0.56;exitY=0;exitDx=0;exitDy=0;exitPerimeter=0;entryX=0.595;entryY=1;entryDx=0;entryDy=0;entryPerimeter=0;" parent="WIyWlLk6GJQsqaUBKTNV-1" source="0BIKZscY-_na4co5bbyC-17" target="GHyRVB632pk-IujTCFTO-10" edge="1">
          <mxGeometry width="160" relative="1" as="geometry">
            <mxPoint x="1030" y="159" as="sourcePoint" />
            <mxPoint x="680" y="-3" as="targetPoint" />
          </mxGeometry>
        </mxCell>
        <mxCell id="JaHAeiwTFwWaZ28Pk-Xw-3" value="" style="endArrow=block;endSize=16;endFill=0;html=1;rounded=0;exitX=0.5;exitY=0;exitDx=0;exitDy=0;entryX=0.421;entryY=0.875;entryDx=0;entryDy=0;entryPerimeter=0;" parent="WIyWlLk6GJQsqaUBKTNV-1" source="0BIKZscY-_na4co5bbyC-13" target="GHyRVB632pk-IujTCFTO-10" edge="1">
          <mxGeometry width="160" relative="1" as="geometry">
            <mxPoint x="262" y="260" as="sourcePoint" />
            <mxPoint x="203" y="-72" as="targetPoint" />
          </mxGeometry>
        </mxCell>
        <mxCell id="JaHAeiwTFwWaZ28Pk-Xw-4" value="" style="endArrow=block;endSize=16;endFill=0;html=1;rounded=0;exitX=0.5;exitY=0;exitDx=0;exitDy=0;entryX=0.25;entryY=1;entryDx=0;entryDy=0;" parent="WIyWlLk6GJQsqaUBKTNV-1" source="0BIKZscY-_na4co5bbyC-1" target="GHyRVB632pk-IujTCFTO-8" edge="1">
          <mxGeometry width="160" relative="1" as="geometry">
            <mxPoint x="10" y="260" as="sourcePoint" />
            <mxPoint x="170" y="-73" as="targetPoint" />
          </mxGeometry>
        </mxCell>
        <mxCell id="vFdlZwCXYa75JgP5HpJY-6" value="GetFileObjectRepositoreFilter" style="swimlane;fontStyle=1;align=center;verticalAlign=top;childLayout=stackLayout;horizontal=1;startSize=26;horizontalStack=0;resizeParent=1;resizeParentMax=0;resizeLast=0;collapsible=1;marginBottom=0;whiteSpace=wrap;html=1;" parent="WIyWlLk6GJQsqaUBKTNV-1" vertex="1">
          <mxGeometry x="1420" y="-298" width="250" height="88" as="geometry" />
        </mxCell>
        <mxCell id="vFdlZwCXYa75JgP5HpJY-7" value="+ id : int | None&amp;nbsp;&lt;br&gt;+ name : str | None" style="text;strokeColor=none;fillColor=none;align=left;verticalAlign=top;spacingLeft=4;spacingRight=4;overflow=hidden;rotatable=0;points=[[0,0.5],[1,0.5]];portConstraint=eastwest;whiteSpace=wrap;html=1;" parent="vFdlZwCXYa75JgP5HpJY-6" vertex="1">
          <mxGeometry y="26" width="250" height="54" as="geometry" />
        </mxCell>
        <mxCell id="vFdlZwCXYa75JgP5HpJY-8" value="" style="line;strokeWidth=1;fillColor=none;align=left;verticalAlign=middle;spacingTop=-1;spacingLeft=3;spacingRight=3;rotatable=0;labelPosition=right;points=[];portConstraint=eastwest;strokeColor=inherit;" parent="vFdlZwCXYa75JgP5HpJY-6" vertex="1">
          <mxGeometry y="80" width="250" height="8" as="geometry" />
        </mxCell>
        <mxCell id="vFdlZwCXYa75JgP5HpJY-10" value="PatchFileObjectRepositoreFilter" style="swimlane;fontStyle=1;align=center;verticalAlign=top;childLayout=stackLayout;horizontal=1;startSize=26;horizontalStack=0;resizeParent=1;resizeParentMax=0;resizeLast=0;collapsible=1;marginBottom=0;whiteSpace=wrap;html=1;" parent="WIyWlLk6GJQsqaUBKTNV-1" vertex="1">
          <mxGeometry x="1720" y="-298" width="250" height="88" as="geometry" />
        </mxCell>
        <mxCell id="vFdlZwCXYa75JgP5HpJY-11" value="+ id : int&lt;br&gt;+ name : str | None&lt;br&gt;+ path: str | None" style="text;strokeColor=none;fillColor=none;align=left;verticalAlign=top;spacingLeft=4;spacingRight=4;overflow=hidden;rotatable=0;points=[[0,0.5],[1,0.5]];portConstraint=eastwest;whiteSpace=wrap;html=1;" parent="vFdlZwCXYa75JgP5HpJY-10" vertex="1">
          <mxGeometry y="26" width="250" height="54" as="geometry" />
        </mxCell>
        <mxCell id="vFdlZwCXYa75JgP5HpJY-12" value="" style="line;strokeWidth=1;fillColor=none;align=left;verticalAlign=middle;spacingTop=-1;spacingLeft=3;spacingRight=3;rotatable=0;labelPosition=right;points=[];portConstraint=eastwest;strokeColor=inherit;" parent="vFdlZwCXYa75JgP5HpJY-10" vertex="1">
          <mxGeometry y="80" width="250" height="8" as="geometry" />
        </mxCell>
        <mxCell id="vFdlZwCXYa75JgP5HpJY-15" value="PatchUserFilter" style="swimlane;fontStyle=1;align=center;verticalAlign=top;childLayout=stackLayout;horizontal=1;startSize=26;horizontalStack=0;resizeParent=1;resizeParentMax=0;resizeLast=0;collapsible=1;marginBottom=0;whiteSpace=wrap;html=1;" parent="WIyWlLk6GJQsqaUBKTNV-1" vertex="1">
          <mxGeometry x="430" y="-698" width="250" height="88" as="geometry" />
        </mxCell>
        <mxCell id="vFdlZwCXYa75JgP5HpJY-16" value="+ id : int&lt;br&gt;+ name : str | None&lt;br&gt;+ email: str | None" style="text;strokeColor=none;fillColor=none;align=left;verticalAlign=top;spacingLeft=4;spacingRight=4;overflow=hidden;rotatable=0;points=[[0,0.5],[1,0.5]];portConstraint=eastwest;whiteSpace=wrap;html=1;" parent="vFdlZwCXYa75JgP5HpJY-15" vertex="1">
          <mxGeometry y="26" width="250" height="54" as="geometry" />
        </mxCell>
        <mxCell id="vFdlZwCXYa75JgP5HpJY-17" value="" style="line;strokeWidth=1;fillColor=none;align=left;verticalAlign=middle;spacingTop=-1;spacingLeft=3;spacingRight=3;rotatable=0;labelPosition=right;points=[];portConstraint=eastwest;strokeColor=inherit;" parent="vFdlZwCXYa75JgP5HpJY-15" vertex="1">
          <mxGeometry y="80" width="250" height="8" as="geometry" />
        </mxCell>
        <mxCell id="vFdlZwCXYa75JgP5HpJY-18" value="GetUserFilter" style="swimlane;fontStyle=1;align=center;verticalAlign=top;childLayout=stackLayout;horizontal=1;startSize=26;horizontalStack=0;resizeParent=1;resizeParentMax=0;resizeLast=0;collapsible=1;marginBottom=0;whiteSpace=wrap;html=1;" parent="WIyWlLk6GJQsqaUBKTNV-1" vertex="1">
          <mxGeometry x="270" y="-533" width="250" height="88" as="geometry" />
        </mxCell>
        <mxCell id="vFdlZwCXYa75JgP5HpJY-19" value="+ id : int | None&amp;nbsp;&lt;br&gt;+ name : str | None" style="text;strokeColor=none;fillColor=none;align=left;verticalAlign=top;spacingLeft=4;spacingRight=4;overflow=hidden;rotatable=0;points=[[0,0.5],[1,0.5]];portConstraint=eastwest;whiteSpace=wrap;html=1;" parent="vFdlZwCXYa75JgP5HpJY-18" vertex="1">
          <mxGeometry y="26" width="250" height="54" as="geometry" />
        </mxCell>
        <mxCell id="vFdlZwCXYa75JgP5HpJY-20" value="" style="line;strokeWidth=1;fillColor=none;align=left;verticalAlign=middle;spacingTop=-1;spacingLeft=3;spacingRight=3;rotatable=0;labelPosition=right;points=[];portConstraint=eastwest;strokeColor=inherit;" parent="vFdlZwCXYa75JgP5HpJY-18" vertex="1">
          <mxGeometry y="80" width="250" height="8" as="geometry" />
        </mxCell>
        <mxCell id="Wldn6IBpD_6MQPRMKl5K-4" value="&amp;lt;&amp;lt;dto&amp;gt;&amp;gt;&lt;br&gt;UserCreate" style="swimlane;fontStyle=1;align=center;verticalAlign=top;childLayout=stackLayout;horizontal=1;startSize=40;horizontalStack=0;resizeParent=1;resizeParentMax=0;resizeLast=0;collapsible=1;marginBottom=0;whiteSpace=wrap;html=1;" vertex="1" parent="WIyWlLk6GJQsqaUBKTNV-1">
          <mxGeometry x="-80" y="-710" width="260" height="100" as="geometry" />
        </mxCell>
        <mxCell id="Wldn6IBpD_6MQPRMKl5K-5" value="+ name : str&amp;nbsp;&lt;br&gt;+ email : str&lt;br&gt;+ role : str" style="text;strokeColor=none;fillColor=none;align=left;verticalAlign=top;spacingLeft=4;spacingRight=4;overflow=hidden;rotatable=0;points=[[0,0.5],[1,0.5]];portConstraint=eastwest;whiteSpace=wrap;html=1;" vertex="1" parent="Wldn6IBpD_6MQPRMKl5K-4">
          <mxGeometry y="40" width="260" height="60" as="geometry" />
        </mxCell>
        <mxCell id="Wldn6IBpD_6MQPRMKl5K-6" value="" style="line;strokeWidth=1;fillColor=none;align=left;verticalAlign=middle;spacingTop=-1;spacingLeft=3;spacingRight=3;rotatable=0;labelPosition=right;points=[];portConstraint=eastwest;strokeColor=inherit;" vertex="1" parent="Wldn6IBpD_6MQPRMKl5K-4">
          <mxGeometry y="100" width="260" as="geometry" />
        </mxCell>
        <mxCell id="Wldn6IBpD_6MQPRMKl5K-7" value="" style="endArrow=open;endSize=12;dashed=1;html=1;rounded=0;entryX=0.5;entryY=0;entryDx=0;entryDy=0;exitX=0.218;exitY=0.98;exitDx=0;exitDy=0;exitPerimeter=0;" edge="1" parent="WIyWlLk6GJQsqaUBKTNV-1" source="zGZ5IysMVzBt_zQlDPzs-35" target="Wldn6IBpD_6MQPRMKl5K-4">
          <mxGeometry width="160" relative="1" as="geometry">
            <mxPoint x="260" y="-830" as="sourcePoint" />
            <mxPoint x="680" y="-97" as="targetPoint" />
          </mxGeometry>
        </mxCell>
        <mxCell id="Wldn6IBpD_6MQPRMKl5K-8" value="&amp;lt;&amp;lt;dto&amp;gt;&amp;gt;&lt;br&gt;FileCreate" style="swimlane;fontStyle=1;align=center;verticalAlign=top;childLayout=stackLayout;horizontal=1;startSize=40;horizontalStack=0;resizeParent=1;resizeParentMax=0;resizeLast=0;collapsible=1;marginBottom=0;whiteSpace=wrap;html=1;" vertex="1" parent="WIyWlLk6GJQsqaUBKTNV-1">
          <mxGeometry x="1260" y="135" width="260" height="130" as="geometry" />
        </mxCell>
        <mxCell id="Wldn6IBpD_6MQPRMKl5K-9" value="+ name : str&amp;nbsp;&lt;br&gt;+ path : str&lt;br&gt;+ body: bytes&lt;br&gt;+ folder_id:&amp;nbsp;&lt;br&gt;+ access_type: str" style="text;strokeColor=none;fillColor=none;align=left;verticalAlign=top;spacingLeft=4;spacingRight=4;overflow=hidden;rotatable=0;points=[[0,0.5],[1,0.5]];portConstraint=eastwest;whiteSpace=wrap;html=1;" vertex="1" parent="Wldn6IBpD_6MQPRMKl5K-8">
          <mxGeometry y="40" width="260" height="90" as="geometry" />
        </mxCell>
        <mxCell id="Wldn6IBpD_6MQPRMKl5K-10" value="" style="line;strokeWidth=1;fillColor=none;align=left;verticalAlign=middle;spacingTop=-1;spacingLeft=3;spacingRight=3;rotatable=0;labelPosition=right;points=[];portConstraint=eastwest;strokeColor=inherit;" vertex="1" parent="Wldn6IBpD_6MQPRMKl5K-8">
          <mxGeometry y="130" width="260" as="geometry" />
        </mxCell>
        <mxCell id="Wldn6IBpD_6MQPRMKl5K-11" value="&amp;lt;&amp;lt;dto&amp;gt;&amp;gt;&lt;br&gt;FolderCreate" style="swimlane;fontStyle=1;align=center;verticalAlign=top;childLayout=stackLayout;horizontal=1;startSize=40;horizontalStack=0;resizeParent=1;resizeParentMax=0;resizeLast=0;collapsible=1;marginBottom=0;whiteSpace=wrap;html=1;" vertex="1" parent="WIyWlLk6GJQsqaUBKTNV-1">
          <mxGeometry x="850" y="150" width="260" height="100" as="geometry" />
        </mxCell>
        <mxCell id="Wldn6IBpD_6MQPRMKl5K-12" value="+ name : str&amp;nbsp;&lt;br&gt;+ path : str" style="text;strokeColor=none;fillColor=none;align=left;verticalAlign=top;spacingLeft=4;spacingRight=4;overflow=hidden;rotatable=0;points=[[0,0.5],[1,0.5]];portConstraint=eastwest;whiteSpace=wrap;html=1;" vertex="1" parent="Wldn6IBpD_6MQPRMKl5K-11">
          <mxGeometry y="40" width="260" height="60" as="geometry" />
        </mxCell>
        <mxCell id="Wldn6IBpD_6MQPRMKl5K-13" value="" style="line;strokeWidth=1;fillColor=none;align=left;verticalAlign=middle;spacingTop=-1;spacingLeft=3;spacingRight=3;rotatable=0;labelPosition=right;points=[];portConstraint=eastwest;strokeColor=inherit;" vertex="1" parent="Wldn6IBpD_6MQPRMKl5K-11">
          <mxGeometry y="100" width="260" as="geometry" />
        </mxCell>
        <mxCell id="Wldn6IBpD_6MQPRMKl5K-15" value="" style="endArrow=open;endSize=12;dashed=1;html=1;rounded=0;exitX=0.576;exitY=1.052;exitDx=0;exitDy=0;exitPerimeter=0;entryX=0.561;entryY=0.022;entryDx=0;entryDy=0;entryPerimeter=0;" edge="1" parent="WIyWlLk6GJQsqaUBKTNV-1" source="QCKMq63nriDoolszePyY-23" target="Wldn6IBpD_6MQPRMKl5K-8">
          <mxGeometry width="160" relative="1" as="geometry">
            <mxPoint x="870" y="-162" as="sourcePoint" />
            <mxPoint x="1170" y="30" as="targetPoint" />
          </mxGeometry>
        </mxCell>
        <mxCell id="Wldn6IBpD_6MQPRMKl5K-16" value="" style="endArrow=open;endSize=12;dashed=1;html=1;rounded=0;exitX=0.234;exitY=1.039;exitDx=0;exitDy=0;exitPerimeter=0;entryX=0.5;entryY=0;entryDx=0;entryDy=0;" edge="1" parent="WIyWlLk6GJQsqaUBKTNV-1" source="QCKMq63nriDoolszePyY-23" target="Wldn6IBpD_6MQPRMKl5K-11">
          <mxGeometry width="160" relative="1" as="geometry">
            <mxPoint x="1300" y="-45" as="sourcePoint" />
            <mxPoint x="1120" y="50" as="targetPoint" />
          </mxGeometry>
        </mxCell>
        <mxCell id="Wldn6IBpD_6MQPRMKl5K-17" value="" style="endArrow=open;endSize=12;dashed=1;html=1;rounded=0;exitX=0.008;exitY=0.903;exitDx=0;exitDy=0;exitPerimeter=0;entryX=1.008;entryY=0.196;entryDx=0;entryDy=0;entryPerimeter=0;" edge="1" parent="WIyWlLk6GJQsqaUBKTNV-1" source="QCKMq63nriDoolszePyY-14" target="0BIKZscY-_na4co5bbyC-33">
          <mxGeometry width="160" relative="1" as="geometry">
            <mxPoint x="908" y="121" as="sourcePoint" />
            <mxPoint x="730" y="-220" as="targetPoint" />
          </mxGeometry>
        </mxCell>
        <mxCell id="Wldn6IBpD_6MQPRMKl5K-20" value="" style="endArrow=open;endSize=12;dashed=1;html=1;rounded=0;exitX=0.564;exitY=1.032;exitDx=0;exitDy=0;exitPerimeter=0;" edge="1" parent="WIyWlLk6GJQsqaUBKTNV-1" source="zGZ5IysMVzBt_zQlDPzs-35" target="vFdlZwCXYa75JgP5HpJY-15">
          <mxGeometry width="160" relative="1" as="geometry">
            <mxPoint x="291" y="-922" as="sourcePoint" />
            <mxPoint x="60" y="-700" as="targetPoint" />
          </mxGeometry>
        </mxCell>
        <mxCell id="Wldn6IBpD_6MQPRMKl5K-21" value="" style="endArrow=open;endSize=12;dashed=1;html=1;rounded=0;exitX=0.502;exitY=1.019;exitDx=0;exitDy=0;exitPerimeter=0;" edge="1" parent="WIyWlLk6GJQsqaUBKTNV-1" source="zGZ5IysMVzBt_zQlDPzs-35" target="vFdlZwCXYa75JgP5HpJY-18">
          <mxGeometry width="160" relative="1" as="geometry">
            <mxPoint x="468" y="-917" as="sourcePoint" />
            <mxPoint x="568" y="-660" as="targetPoint" />
          </mxGeometry>
        </mxCell>
        <mxCell id="Wldn6IBpD_6MQPRMKl5K-23" value="" style="endArrow=open;endSize=12;dashed=1;html=1;rounded=0;entryX=0.75;entryY=0;entryDx=0;entryDy=0;exitX=0.384;exitY=1.056;exitDx=0;exitDy=0;exitPerimeter=0;" edge="1" parent="WIyWlLk6GJQsqaUBKTNV-1" source="QCKMq63nriDoolszePyY-14" target="vFdlZwCXYa75JgP5HpJY-6">
          <mxGeometry width="160" relative="1" as="geometry">
            <mxPoint x="1520" y="-300" as="sourcePoint" />
            <mxPoint x="1396" y="103" as="targetPoint" />
          </mxGeometry>
        </mxCell>
        <mxCell id="Wldn6IBpD_6MQPRMKl5K-24" value="" style="endArrow=open;endSize=12;dashed=1;html=1;rounded=0;exitX=0.62;exitY=1.011;exitDx=0;exitDy=0;exitPerimeter=0;entryX=0.25;entryY=0;entryDx=0;entryDy=0;" edge="1" parent="WIyWlLk6GJQsqaUBKTNV-1" source="QCKMq63nriDoolszePyY-14" target="vFdlZwCXYa75JgP5HpJY-10">
          <mxGeometry width="160" relative="1" as="geometry">
            <mxPoint x="1530" y="-290" as="sourcePoint" />
            <mxPoint x="1750" y="-330" as="targetPoint" />
          </mxGeometry>
        </mxCell>
        <mxCell id="Wldn6IBpD_6MQPRMKl5K-25" value="" style="endArrow=open;endSize=12;dashed=1;html=1;rounded=0;exitX=-0.011;exitY=0.323;exitDx=0;exitDy=0;exitPerimeter=0;entryX=1;entryY=0.5;entryDx=0;entryDy=0;" edge="1" parent="WIyWlLk6GJQsqaUBKTNV-1" source="QCKMq63nriDoolszePyY-10" target="vFdlZwCXYa75JgP5HpJY-16">
          <mxGeometry width="160" relative="1" as="geometry">
            <mxPoint x="468" y="-917" as="sourcePoint" />
            <mxPoint x="549" y="-688" as="targetPoint" />
          </mxGeometry>
        </mxCell>
        <mxCell id="Wldn6IBpD_6MQPRMKl5K-26" value="" style="endArrow=open;endSize=12;dashed=1;html=1;rounded=0;exitX=0;exitY=0.714;exitDx=0;exitDy=0;exitPerimeter=0;entryX=1;entryY=0.5;entryDx=0;entryDy=0;" edge="1" parent="WIyWlLk6GJQsqaUBKTNV-1" source="QCKMq63nriDoolszePyY-10" target="vFdlZwCXYa75JgP5HpJY-19">
          <mxGeometry width="160" relative="1" as="geometry">
            <mxPoint x="776" y="-537" as="sourcePoint" />
            <mxPoint x="690" y="-635" as="targetPoint" />
          </mxGeometry>
        </mxCell>
        <mxCell id="Wldn6IBpD_6MQPRMKl5K-28" value="PatchFileRightsFilter" style="swimlane;fontStyle=1;align=center;verticalAlign=top;childLayout=stackLayout;horizontal=1;startSize=26;horizontalStack=0;resizeParent=1;resizeParentMax=0;resizeLast=0;collapsible=1;marginBottom=0;whiteSpace=wrap;html=1;" vertex="1" parent="WIyWlLk6GJQsqaUBKTNV-1">
          <mxGeometry x="-50" y="450" width="250" height="88" as="geometry" />
        </mxCell>
        <mxCell id="Wldn6IBpD_6MQPRMKl5K-29" value="+ id : int&lt;br&gt;+ name : str | None&lt;br&gt;+ access_type: str&amp;nbsp;" style="text;strokeColor=none;fillColor=none;align=left;verticalAlign=top;spacingLeft=4;spacingRight=4;overflow=hidden;rotatable=0;points=[[0,0.5],[1,0.5]];portConstraint=eastwest;whiteSpace=wrap;html=1;" vertex="1" parent="Wldn6IBpD_6MQPRMKl5K-28">
          <mxGeometry y="26" width="250" height="54" as="geometry" />
        </mxCell>
        <mxCell id="Wldn6IBpD_6MQPRMKl5K-30" value="" style="line;strokeWidth=1;fillColor=none;align=left;verticalAlign=middle;spacingTop=-1;spacingLeft=3;spacingRight=3;rotatable=0;labelPosition=right;points=[];portConstraint=eastwest;strokeColor=inherit;" vertex="1" parent="Wldn6IBpD_6MQPRMKl5K-28">
          <mxGeometry y="80" width="250" height="8" as="geometry" />
        </mxCell>
        <mxCell id="Wldn6IBpD_6MQPRMKl5K-31" value="" style="endArrow=open;endSize=12;dashed=1;html=1;rounded=0;exitX=0.5;exitY=1;exitDx=0;exitDy=0;exitPerimeter=0;entryX=0.311;entryY=-0.019;entryDx=0;entryDy=0;entryPerimeter=0;" edge="1" parent="WIyWlLk6GJQsqaUBKTNV-1" source="0BIKZscY-_na4co5bbyC-16" target="Wldn6IBpD_6MQPRMKl5K-28">
          <mxGeometry width="160" relative="1" as="geometry">
            <mxPoint x="10" y="360" as="sourcePoint" />
            <mxPoint x="26" y="503" as="targetPoint" />
          </mxGeometry>
        </mxCell>
        <mxCell id="Wldn6IBpD_6MQPRMKl5K-32" value="" style="endArrow=open;endSize=12;dashed=1;html=1;rounded=0;exitX=0.45;exitY=1.312;exitDx=0;exitDy=0;exitPerimeter=0;entryX=0.5;entryY=0;entryDx=0;entryDy=0;" edge="1" parent="WIyWlLk6GJQsqaUBKTNV-1" source="0BIKZscY-_na4co5bbyC-20" target="Wldn6IBpD_6MQPRMKl5K-28">
          <mxGeometry width="160" relative="1" as="geometry">
            <mxPoint x="10" y="350" as="sourcePoint" />
            <mxPoint x="38" y="458" as="targetPoint" />
          </mxGeometry>
        </mxCell>
      </root>
    </mxGraphModel>
  </diagram>
</mxfile>
